<?xml version="1.0" standalone="no"?>
<!DOCTYPE svg PUBLIC "-//W3C//DTD SVG 20010904//EN"
 "http://www.w3.org/TR/2001/REC-SVG-20010904/DTD/svg10.dtd">
<svg version="1.0" xmlns="http://www.w3.org/2000/svg"
 width="1024.000000pt" height="1536.000000pt" viewBox="0 0 1024.000000 1536.000000"
 preserveAspectRatio="xMidYMid meet">

<g transform="translate(0.000000,1536.000000) scale(0.100000,-0.100000)"
fill="#000000" stroke="none">
<path d="M6269 10945 c-104 -20 -222 -63 -314 -116 -132 -75 -280 -229 -345
-359 -12 -25 -24 -46 -25 -48 -1 -1 -52 18 -114 43 -205 84 -466 148 -741 182
-203 25 -670 24 -855 -1 -334 -45 -662 -140 -925 -267 l-145 -70 -58 66 c-169
189 -386 285 -640 285 -430 -1 -799 -271 -963 -706 -66 -176 -84 -405 -44
-572 50 -209 189 -406 365 -517 33 -21 62 -39 64 -41 1 -1 -17 -65 -43 -141
-69 -209 -101 -349 -157 -683 -48 -284 -56 -321 -125 -532 -105 -326 -119
-393 -118 -608 1 -156 4 -186 27 -275 32 -118 106 -276 170 -360 45 -60 146
-161 202 -203 l30 -22 -35 -28 c-124 -97 -215 -221 -262 -358 -149 -432 179
-747 802 -771 247 -9 403 13 870 127 403 98 491 114 590 105 41 -4 176 -26
300 -50 232 -45 403 -69 573 -80 l97 -7 37 -55 c96 -145 322 -260 598 -305
100 -16 435 -15 570 1 365 44 682 148 971 319 77 45 134 59 334 82 318 37 541
81 851 170 190 55 226 59 364 34 107 -20 322 -22 445 -5 47 6 161 30 253 53
l168 41 117 -16 c279 -40 433 -7 554 121 123 128 161 287 123 508 -77 440
-389 800 -784 906 -79 21 -81 22 -81 52 0 108 -53 331 -114 481 l-32 80 47 23
c55 26 141 109 177 171 100 170 107 388 20 555 -41 77 -146 183 -218 218 -222
110 -471 57 -611 -129 -28 -37 -50 -58 -56 -52 -5 5 -60 38 -122 73 -249 143
-582 255 -889 300 -51 7 -94 15 -96 17 -2 2 -33 103 -71 224 -49 159 -64 220
-55 223 54 18 178 92 237 142 97 80 162 164 222 285 76 152 96 238 95 420 -1
184 -26 291 -107 459 -149 308 -397 514 -717 597 -101 27 -309 34 -411 14z
m-389 -382 c-54 -61 -68 -73 -50 -48 17 25 83 95 88 95 3 0 -15 -21 -38 -47z
m-1279 -53 c374 -36 694 -126 1000 -280 645 -325 1080 -844 1289 -1540 35
-114 207 -869 244 -1068 97 -520 -17 -938 -348 -1267 -165 -165 -351 -282
-562 -354 -71 -25 -134 -36 -314 -56 -690 -78 -1045 -191 -1277 -409 -116
-108 -197 -254 -210 -377 l-6 -59 -59 0 c-90 0 -328 28 -472 56 -205 40 -381
104 -498 182 -21 13 -36 27 -34 29 2 3 96 4 208 4 111 0 221 3 243 8 l40 8
-28 11 c-15 7 -114 28 -220 47 -608 113 -833 164 -1110 250 -360 111 -650 246
-847 393 -195 145 -286 267 -354 472 -96 289 -68 556 102 1000 31 79 47 145
67 270 83 523 105 628 172 835 106 327 256 607 460 860 97 120 296 316 413
407 422 326 936 524 1500 576 135 13 479 14 601 2z m-2384 -16 c-3 -3 -12 -4
-19 -1 -8 3 -5 6 6 6 11 1 17 -2 13 -5z m-240 -10 c-3 -3 -12 -4 -19 -1 -8 3
-5 6 6 6 11 1 17 -2 13 -5z m-327 -128 c0 -2 -8 -10 -17 -17 -16 -13 -17 -12
-4 4 13 16 21 21 21 13z m-100 -79 c0 -2 -10 -12 -22 -23 l-23 -19 19 23 c18
21 26 27 26 19z m5686 -1862 c356 -61 771 -257 1034 -487 230 -201 417 -503
500 -805 25 -90 50 -233 50 -282 l0 -37 -62 -13 c-155 -32 -277 -99 -399 -221
-246 -244 -413 -697 -396 -1071 l5 -116 -75 -37 c-100 -50 -310 -119 -458
-151 -158 -34 -365 -64 -365 -54 0 5 4 9 9 9 16 0 131 152 186 245 265 453
337 1124 186 1740 -33 133 -87 295 -133 395 -16 36 -40 117 -53 180 -13 63
-42 189 -64 279 -48 191 -91 393 -91 421 0 24 10 25 126 5z m1536 -167 c247
-114 288 -467 77 -662 -34 -32 -68 -56 -77 -54 -9 2 -40 41 -68 88 -76 124
-186 259 -293 361 l-94 89 18 46 c23 60 83 118 148 144 76 30 210 24 289 -12z"/>
<path d="M5085 8496 c-337 -77 -557 -446 -532 -890 24 -422 227 -694 612 -820
250 -81 590 -53 793 66 84 49 200 170 244 253 109 210 92 468 -51 770 -152
320 -379 530 -656 605 -102 28 -320 36 -410 16z"/>
<path d="M2445 8365 c-145 -32 -250 -90 -356 -194 -212 -210 -369 -594 -369
-904 0 -296 151 -486 445 -563 104 -28 369 -25 480 4 116 31 252 103 329 174
177 161 269 449 246 763 -12 155 -42 271 -101 393 -42 86 -64 117 -127 181
-117 119 -222 161 -392 160 -52 0 -122 -7 -155 -14z"/>
<path d="M3713 7256 c-28 -7 -63 -21 -78 -30 -36 -23 -60 -76 -51 -112 11 -44
95 -119 154 -138 35 -12 52 -23 56 -39 30 -111 -51 -233 -166 -252 -83 -14
-175 37 -220 123 -34 64 -117 30 -105 -43 12 -73 104 -164 194 -191 113 -34
227 -9 305 66 l49 48 32 -30 c18 -17 57 -42 87 -56 47 -23 68 -27 150 -27 87
0 101 3 161 32 79 39 148 109 174 176 17 44 17 48 1 72 -10 14 -24 29 -32 32
-24 9 -63 -14 -76 -44 -40 -91 -122 -145 -223 -146 -127 -1 -224 92 -225 215
0 47 1 48 48 72 94 47 149 141 122 207 -21 49 -82 72 -205 75 -60 2 -121 -2
-152 -10z"/>
</g>
</svg>
